ModelForces
version=1
nRows=4
nColumns=206
inDegrees=no

This file contains the forces exerted on a model during a simulation.

A force is a generalized force, meaning that it can be either a force (N) or a torque (Nm).

Units are S.I. units (second, meters, Newtons, ...)
Angles are in degrees.

endheader
time	glut_med1_r	glut_med2_r	glut_med3_r	glut_min1_r	glut_min2_r	glut_min3_r	semimem_r	semiten_r	bifemlh_r	bifemsh_r	sar_r	add_long_r	add_brev_r	add_mag1_r	add_mag2_r	add_mag3_r	tfl_r	pect_r	grac_r	glut_max1_r	glut_max2_r	glut_max3_r	iliacus_r	psoas_r	quad_fem_r	gem_r	peri_r	rect_fem_r	vas_med_r	vas_int_r	vas_lat_r	med_gas_r	lat_gas_r	soleus_r	tib_post_r	flex_dig_r	flex_hal_r	tib_ant_r	per_brev_r	per_long_r	per_tert_r	ext_dig_r	ext_hal_r	glut_med1_l	glut_med2_l	glut_med3_l	glut_min1_l	glut_min2_l	glut_min3_l	semimem_l	semiten_l	bifemlh_l	bifemsh_l	sar_l	add_long_l	add_brev_l	add_mag1_l	add_mag2_l	add_mag3_l	tfl_l	pect_l	grac_l	glut_max1_l	glut_max2_l	glut_max3_l	iliacus_l	psoas_l	quad_fem_l	gem_l	peri_l	rect_fem_l	vas_med_l	vas_int_l	vas_lat_l	med_gas_l	lat_gas_l	soleus_l	tib_post_l	flex_dig_l	flex_hal_l	tib_ant_l	per_brev_l	per_long_l	per_tert_l	ext_dig_l	ext_hal_l	ercspn_r	ercspn_l	intobl_r	intobl_l	extobl_r	extobl_l	femur_lat_meniscii_l.femur_lat_l.force.X	femur_lat_meniscii_l.femur_lat_l.force.Y	femur_lat_meniscii_l.femur_lat_l.force.Z	femur_lat_meniscii_l.femur_lat_l.torque.X	femur_lat_meniscii_l.femur_lat_l.torque.Y	femur_lat_meniscii_l.femur_lat_l.torque.Z	femur_lat_meniscii_l.meniscus_lat_l.force.X	femur_lat_meniscii_l.meniscus_lat_l.force.Y	femur_lat_meniscii_l.meniscus_lat_l.force.Z	femur_lat_meniscii_l.meniscus_lat_l.torque.X	femur_lat_meniscii_l.meniscus_lat_l.torque.Y	femur_lat_meniscii_l.meniscus_lat_l.torque.Z	femur_med_meniscii_l.femur_med_l.force.X	femur_med_meniscii_l.femur_med_l.force.Y	femur_med_meniscii_l.femur_med_l.force.Z	femur_med_meniscii_l.femur_med_l.torque.X	femur_med_meniscii_l.femur_med_l.torque.Y	femur_med_meniscii_l.femur_med_l.torque.Z	femur_med_meniscii_l.meniscus_med_l.force.X	femur_med_meniscii_l.meniscus_med_l.force.Y	femur_med_meniscii_l.meniscus_med_l.force.Z	femur_med_meniscii_l.meniscus_med_l.torque.X	femur_med_meniscii_l.meniscus_med_l.torque.Y	femur_med_meniscii_l.meniscus_med_l.torque.Z	femur_lat_meniscii_r.femur_lat_r.force.X	femur_lat_meniscii_r.femur_lat_r.force.Y	femur_lat_meniscii_r.femur_lat_r.force.Z	femur_lat_meniscii_r.femur_lat_r.torque.X	femur_lat_meniscii_r.femur_lat_r.torque.Y	femur_lat_meniscii_r.femur_lat_r.torque.Z	femur_lat_meniscii_r.meniscus_lat_r.force.X	femur_lat_meniscii_r.meniscus_lat_r.force.Y	femur_lat_meniscii_r.meniscus_lat_r.force.Z	femur_lat_meniscii_r.meniscus_lat_r.torque.X	femur_lat_meniscii_r.meniscus_lat_r.torque.Y	femur_lat_meniscii_r.meniscus_lat_r.torque.Z	femur_med_meniscii_r.femur_med_r.force.X	femur_med_meniscii_r.femur_med_r.force.Y	femur_med_meniscii_r.femur_med_r.force.Z	femur_med_meniscii_r.femur_med_r.torque.X	femur_med_meniscii_r.femur_med_r.torque.Y	femur_med_meniscii_r.femur_med_r.torque.Z	femur_med_meniscii_r.meniscus_med_r.force.X	femur_med_meniscii_r.meniscus_med_r.force.Y	femur_med_meniscii_r.meniscus_med_r.force.Z	femur_med_meniscii_r.meniscus_med_r.torque.X	femur_med_meniscii_r.meniscus_med_r.torque.Y	femur_med_meniscii_r.meniscus_med_r.torque.Z	femur_med_tibia_l.tibia_upper_l.force.X	femur_med_tibia_l.tibia_upper_l.force.Y	femur_med_tibia_l.tibia_upper_l.force.Z	femur_med_tibia_l.tibia_upper_l.torque.X	femur_med_tibia_l.tibia_upper_l.torque.Y	femur_med_tibia_l.tibia_upper_l.torque.Z	femur_med_tibia_l.femur_med_l.force.X	femur_med_tibia_l.femur_med_l.force.Y	femur_med_tibia_l.femur_med_l.force.Z	femur_med_tibia_l.femur_med_l.torque.X	femur_med_tibia_l.femur_med_l.torque.Y	femur_med_tibia_l.femur_med_l.torque.Z	femur_lat_tibia_l.tibia_upper_l.force.X	femur_lat_tibia_l.tibia_upper_l.force.Y	femur_lat_tibia_l.tibia_upper_l.force.Z	femur_lat_tibia_l.tibia_upper_l.torque.X	femur_lat_tibia_l.tibia_upper_l.torque.Y	femur_lat_tibia_l.tibia_upper_l.torque.Z	femur_lat_tibia_l.femur_lat_l.force.X	femur_lat_tibia_l.femur_lat_l.force.Y	femur_lat_tibia_l.femur_lat_l.force.Z	femur_lat_tibia_l.femur_lat_l.torque.X	femur_lat_tibia_l.femur_lat_l.torque.Y	femur_lat_tibia_l.femur_lat_l.torque.Z	femur_med_tibia_r.tibia_upper_r.force.X	femur_med_tibia_r.tibia_upper_r.force.Y	femur_med_tibia_r.tibia_upper_r.force.Z	femur_med_tibia_r.tibia_upper_r.torque.X	femur_med_tibia_r.tibia_upper_r.torque.Y	femur_med_tibia_r.tibia_upper_r.torque.Z	femur_med_tibia_r.femur_med_r.force.X	femur_med_tibia_r.femur_med_r.force.Y	femur_med_tibia_r.femur_med_r.force.Z	femur_med_tibia_r.femur_med_r.torque.X	femur_med_tibia_r.femur_med_r.torque.Y	femur_med_tibia_r.femur_med_r.torque.Z	femur_lat_tibia_r.tibia_upper_r.force.X	femur_lat_tibia_r.tibia_upper_r.force.Y	femur_lat_tibia_r.tibia_upper_r.force.Z	femur_lat_tibia_r.tibia_upper_r.torque.X	femur_lat_tibia_r.tibia_upper_r.torque.Y	femur_lat_tibia_r.tibia_upper_r.torque.Z	femur_lat_tibia_r.femur_lat_r.force.X	femur_lat_tibia_r.femur_lat_r.force.Y	femur_lat_tibia_r.femur_lat_r.force.Z	femur_lat_tibia_r.femur_lat_r.torque.X	femur_lat_tibia_r.femur_lat_r.torque.Y	femur_lat_tibia_r.femur_lat_r.torque.Z	aACL_R	pACL_R	aPCL_R	pPCL_R	aMCL_R	mMCL_R	pMCL_R	aLCL_R	mLCL_R	pLCL_R	aPCL_L	pPCL_L	aMCL_L	aLCL_L	ground_prescribedForce_0_fx	ground_prescribedForce_0_fy	ground_prescribedForce_0_fz
      0.22128640	      9.40565199	      6.93867635	      7.44604602	      3.22843546	      3.79692588	      3.97660632	     12.52634380	      5.43262367	      9.88611242	      8.82484711	      1.93332189	      6.89084811	      5.01905494	      3.56990601	      3.01548542	      5.00338973	      4.68769906	      2.72168756	      1.96355702	      4.47783536	      6.80880000	      5.10112504	     24.96475672	     15.58806853	      4.42223454	      3.23143359	      5.46947566	     14.25151846	      9.22316324	      8.38607154	      9.61842188	      4.33579498	      2.01398737	      8.76706611	      9.52525348	      2.35462539	      2.30151108	     16.28021629	      4.69349184	      9.37783101	      0.00000000	      7.89450421	      2.66301165	      9.40565199	      6.93867635	      7.44604602	      3.22843546	      3.79692588	      3.97660632	     11.39281575	      5.07797081	      9.90703776	      8.80025645	      1.84359503	      6.89084811	      5.01905494	      3.56990601	      3.01548542	      5.00338973	      4.72636773	      2.72168756	      1.89727075	      4.47783536	      6.80880000	      5.10112504	     24.96475672	     15.58806853	      4.42223454	      3.23143359	      5.46947566	     13.70272975	      8.11476757	      9.34485932	     10.03965852	     19.35227529	      8.98920811	     41.58150715	     46.62916857	      3.85723933	      3.94587895	     10.75013218	      5.67407685	     15.42032560	      2.41139727	      7.04171921	      2.21320651	     30.37605637	     30.37605637	     11.12102584	     11.12102584	     28.71184100	     28.71184100	      2.76307435	     50.99597937	     -9.56042239	      5.21997485	     -0.02578839	      1.48581788	     -2.76307435	    -50.99597937	      9.56042239	     -1.74637766	      0.02558040	     -0.48301696	     -3.31599387	     20.97615968	     -3.40468921	      0.94473225	     -0.02138609	     -1.00501789	      3.31599387	    -20.97615968	      3.40468921	      0.28075727	      0.00368718	     -0.29758878	     19.25796489	     78.31740651	      4.77086287	     -3.95464911	      0.47757583	      8.32277911	    -19.25796489	    -78.31740651	     -4.77086287	      2.55084265	     -0.59302536	     -0.76101000	     56.72347781	     99.13651227	     -0.72019397	      2.36868951	     -1.21161525	     24.15671715	    -56.72347781	    -99.13651227	      0.72019397	     -1.54514086	      0.90034409	     -2.14014037	      0.00000000	      0.00000000	      0.00000000	      0.00000000	      0.00000000	      0.00000000	      0.00000000	      0.00000000	      0.00000000	      0.00000000	      0.00000000	      0.00000000	      0.00000000	      0.00000000	      0.00000000	      0.00000000	      0.00000000	      0.00000000	      0.00000000	      0.00000000	      0.00000000	      0.00000000	      0.00000000	      0.00000000	     -1.43134181	     -5.51391595	      0.21834975	     -0.08886751	      0.01967723	     -0.08235941	      1.43134181	      5.51391595	     -0.21834975	      0.20326814	     -0.02714176	      0.64378727	      0.00000000	      0.00000000	      0.00000000	      0.00000000	      0.00000000	      0.00000000	      0.00000000	      0.00000000	      0.00000000	      0.00000000	      0.00000000	      0.00000000	     19.53313291	     39.08546908	      0.00000000	      0.00000000	      0.00000000	      8.97593299	     33.83439122	      1.21199835	      0.00000000	      1.03494124	      0.00000000	      0.00000000	      0.00000001	      0.00000000	    110.00000000	      0.00000000	      0.00000000
      0.22163121	      9.39727171	      6.93295846	      7.43983386	      3.22588717	      3.79415248	      3.97307143	     12.51823917	      5.42906135	      9.87187388	      8.81623091	      1.93205883	      6.88510255	      5.01512918	      3.56698149	      3.01295584	      4.99880371	      4.68512287	      2.71952471	      1.96243862	      4.47413916	      6.80316452	      5.09683007	     24.95430636	     15.57619361	      4.41866731	      3.22972282	      5.46354484	     14.23796277	      9.21748253	      8.37968210	      9.60605840	      4.33296667	      2.01146441	      8.76148889	      9.50553783	      2.36350549	      2.29969074	     16.26501158	      4.69613186	      9.37222091	      4.20464608	      7.86271770	      2.65883518	      9.39727171	      6.93295846	      7.43983386	      3.22588717	      3.79415248	      3.97307143	     11.38108969	      5.07348512	      9.89711678	      8.79315132	      1.84214649	      6.88510255	      5.01512918	      3.56698149	      3.01295584	      4.99880371	      4.72352563	      2.71952471	      1.89575393	      4.47413916	      6.80316452	      5.09683007	     24.95430636	     15.57619361	      4.41866731	      3.22972282	      5.46354484	     13.68915972	      8.10790004	      9.33680700	     10.03103226	     19.33023843	      8.97895757	     41.53630733	     46.61028186	      3.85242210	      3.94137844	     10.73980503	      5.66816739	     15.40763109	      2.40956404	      7.03373970	      2.21073167	     30.35202548	     30.35202548	     11.11147229	     11.11147229	     28.70323511	     28.70323511	      2.76307435	     50.99597937	     -9.56042239	      5.21997485	     -0.02578839	      1.48581788	     -2.76307435	    -50.99597937	      9.56042239	     -1.74637766	      0.02558040	     -0.48301696	     -3.31599387	     20.97615968	     -3.40468921	      0.94473225	     -0.02138609	     -1.00501789	      3.31599387	    -20.97615968	      3.40468921	      0.28075727	      0.00368718	     -0.29758878	     19.23449541	     78.31757224	      4.73460581	     -3.93935771	      0.47692971	      8.31297788	    -19.23449541	    -78.31757224	     -4.73460581	      2.54955615	     -0.59220745	     -0.75999334	     56.77514240	     99.17159962	     -0.76933631	      2.39019134	     -1.21330749	     24.17928725	    -56.77514240	    -99.17159962	      0.76933631	     -1.54746856	      0.90180749	     -2.14243244	      0.00000000	      0.00000000	      0.00000000	      0.00000000	      0.00000000	      0.00000000	      0.00000000	      0.00000000	      0.00000000	      0.00000000	      0.00000000	      0.00000000	      0.00000000	      0.00000000	      0.00000000	      0.00000000	      0.00000000	      0.00000000	      0.00000000	      0.00000000	      0.00000000	      0.00000000	      0.00000000	      0.00000000	     -1.42418960	     -5.46889062	      0.21802382	     -0.08819000	      0.01957551	     -0.08185171	      1.42418960	      5.46889062	     -0.21802382	      0.20222125	     -0.02700166	      0.64045729	      0.00000000	      0.00000000	      0.00000000	      0.00000000	      0.00000000	      0.00000000	      0.00000000	      0.00000000	      0.00000000	      0.00000000	      0.00000000	      0.00000000	     19.54269081	     39.10554296	      0.00000000	      0.00000000	      0.00000000	      8.96784647	     33.83340802	      1.12194310	      0.00000000	      0.93760423	      0.00000000	      0.00000000	      0.00000001	      0.00000000	    110.00000000	      0.00000000	      0.00000000
      0.22237439	      9.37933904	      6.92072241	      7.42654027	      3.22043375	      3.78821746	      3.96550720	     12.50096649	      5.42150362	      9.84055161	      8.79585189	      1.92954561	      6.87280746	      5.00672849	      3.56072314	      3.00754283	      4.98899027	      4.67953115	      2.71489613	      1.96001905	      4.46622956	      6.79110503	      5.08763930	     24.93194421	     15.55078427	      4.41103341	      3.22606229	      5.45084814	     14.20845655	      9.20546740	      8.36509226	      9.57788442	      4.32528940	      2.00511064	      8.74508261	      9.45923968	      2.38192695	      2.29501832	     16.23115927	      4.70451379	      9.36315549	      6.10380131	      7.79558981	      2.65020270	      9.37933904	      6.92072241	      7.42654027	      3.22043375	      3.78821746	      3.96550720	     11.35599215	      5.06388630	      9.87588426	      8.77794634	      1.83904663	      6.87280746	      5.00672849	      3.56072314	      3.00754283	      4.98899027	      4.71744393	      2.71489613	      1.89250791	      4.46622956	      6.79110503	      5.08763930	     24.93194421	     15.55078427	      4.41103341	      3.22606229	      5.45084814	     13.66011832	      8.09320464	      9.31957655	     10.01257391	     19.28304728	      8.95700658	     41.43954493	     46.56986088	      3.84211369	      3.93174891	     10.71770503	      5.65551897	     15.38045552	      2.40564133	      7.01665262	      2.20543271	     30.30059848	     30.30059848	     11.09102871	     11.09102871	     28.68482005	     28.68482005	      2.76307435	     50.99597937	     -9.56042239	      5.21997485	     -0.02578839	      1.48581788	     -2.76307435	    -50.99597937	      9.56042239	     -1.74637766	      0.02558040	     -0.48301696	     -3.31599387	     20.97615968	     -3.40468921	      0.94473225	     -0.02138609	     -1.00501789	      3.31599387	    -20.97615968	      3.40468921	      0.28075727	      0.00368718	     -0.29758878	     19.17681934	     78.29098510	      4.70249883	     -3.92519994	      0.47543935	      8.28885486	    -19.17681934	    -78.29098510	     -4.70249883	      2.54773336	     -0.59040002	     -0.75757990	     56.82563903	     99.20220155	     -0.88069217	      2.43763223	     -1.21471960	     24.20173628	    -56.82563903	    -99.20220155	      0.88069217	     -1.55172483	      0.90306553	     -2.14467118	      0.00000000	      0.00000000	      0.00000000	      0.00000000	      0.00000000	      0.00000000	      0.00000000	      0.00000000	      0.00000000	      0.00000000	      0.00000000	      0.00000000	      0.00000000	      0.00000000	      0.00000000	      0.00000000	      0.00000000	      0.00000000	      0.00000000	      0.00000000	      0.00000000	      0.00000000	      0.00000000	      0.00000000	     -1.40375391	     -5.37771293	      0.21559710	     -0.08673548	      0.01928739	     -0.08057290	      1.40375391	      5.37771293	     -0.21559710	      0.19934008	     -0.02660666	      0.63117495	      0.00000000	      0.00000000	      0.00000000	      0.00000000	      0.00000000	      0.00000000	      0.00000000	      0.00000000	      0.00000000	      0.00000000	      0.00000000	      0.00000000	     19.56576423	     39.14851229	      0.00000000	      0.00000000	      0.00000000	      8.99511455	     33.87615018	      1.05837381	      0.00000000	      0.86427179	      0.00000000	      0.00000000	      0.00000001	      0.00000000	    110.00000000	      0.00000000	      0.00000000
      0.22383755	      9.34454592	      6.89697979	      7.40074637	      3.20985124	      3.77670103	      3.95083092	     12.46898835	      5.40758443	      9.77975012	      8.75780471	      1.92514918	      6.84895096	      4.99042767	      3.54857963	      2.99704016	      4.96995025	      4.66876264	      2.70591429	      1.95573453	      4.45088249	      6.76770594	      5.06980683	     24.88855794	     15.50149030	      4.39622008	      3.21896123	      5.42619220	     14.15228635	      9.18574273	      8.33874818	      9.52558193	      4.31011200	      1.99235096	      8.70967099	      9.36282701	      2.41673382	      2.28427828	     16.16375754	      4.72513480	      9.35136980	      7.16410404	      7.66636008	      2.63466636	      9.34454592	      6.89697979	      7.40074637	      3.20985124	      3.77670103	      3.95083092	     11.30727676	      5.04526250	      9.83467724	      8.74844176	      1.83303139	      6.84895096	      4.99042767	      3.54857963	      2.99704016	      4.96995025	      4.70564428	      2.70591429	      1.88620898	      4.45088249	      6.76770594	      5.06980683	     24.88855794	     15.50149030	      4.39622008	      3.21896123	      5.42619220	     13.60375898	      8.06469328	      9.28614766	      9.97676365	     19.19134804	      8.91435328	     41.25164551	     46.49141227	      3.82211212	      3.91306908	     10.67482150	      5.63096670	     15.32768583	      2.39803095	      6.98345351	      2.19513954	     30.20080273	     30.20080273	     11.05136289	     11.05136289	     28.64909246	     28.64909246	      2.76307435	     50.99597937	     -9.56042239	      5.21997485	     -0.02578839	      1.48581788	     -2.76307435	    -50.99597937	      9.56042239	     -1.74637766	      0.02558040	     -0.48301696	     -3.31599387	     20.97615968	     -3.40468921	      0.94473225	     -0.02138609	     -1.00501789	      3.31599387	    -20.97615968	      3.40468921	      0.28075727	      0.00368718	     -0.29758878	     19.09594450	     78.13280626	      4.71138681	     -3.92510672	      0.47356315	      8.25497320	    -19.09594450	    -78.13280626	     -4.71138681	      2.54361492	     -0.58822382	     -0.75407133	     56.25816607	    100.23841654	     -1.45153069	      2.70209470	     -1.20461436	     23.96250028	    -56.25816607	   -100.23841654	      1.45153069	     -1.59048624	      0.89702357	     -2.12028908	      0.00000000	      0.00000000	      0.00000000	      0.00000000	      0.00000000	      0.00000000	      0.00000000	      0.00000000	      0.00000000	      0.00000000	      0.00000000	      0.00000000	      0.00000000	      0.00000000	      0.00000000	      0.00000000	      0.00000000	      0.00000000	      0.00000000	      0.00000000	      0.00000000	      0.00000000	      0.00000000	      0.00000000	     -1.35843364	     -5.17783977	      0.20430209	     -0.08329831	      0.01867126	     -0.07775928	      1.35843364	      5.17783977	     -0.20430209	      0.19047428	     -0.02576499	      0.61060371	      0.00000000	      0.00000000	      0.00000000	      0.00000000	      0.00000000	      0.00000000	      0.00000000	      0.00000000	      0.00000000	      0.00000000	      0.00000000	      0.00000000	     19.66502338	     39.27552690	      0.00000000	      0.00000000	      0.00000000	      9.22539194	     34.14002232	      1.13732460	      0.00000000	      0.92956154	      0.00000000	      0.00000000	      0.00000001	      0.00000000	    110.00000000	      0.00000000	      0.00000000
